<?xml version="1.0"?>
<svg xmlns="http://www.w3.org/2000/svg" width="800" height="300" class="font-svg">
    <path stroke-dasharray="988.01" stroke-dashoffset="988.01" stroke="#222" stroke-width="3" fill="none" d="M4.00390625,86.376953125q0-1.7578125,0.048828125-3.369140625t0.1953125-3.369140625t0.2685546875-3.076171875t0.3662109375-2.294921875t0.3173828125-1.7578125t0.1708984375-1.513671875q0.244140625-2.880859375,0.3173828125-6.3232421875t0.0732421875-6.0302734375l0-18.65234375q0-6.396484375,0.244140625-13.623046875t0.732421875-16.6015625l1.26953125-0.146484375q1.7578125,0.146484375,2.63671875,1.7578125t1.3671875,2.978515625l0-0.09765625q0.244140625,0.48828125,0.244140625,0.732421875q0.48828125,1.123046875,1.171875,2.44140625t1.318359375,2.294921875l0.48828125,1.171875l-0.09765625-0.146484375q0.634765625,0.9765625,1.123046875,1.85546875t0.732421875,1.416015625q1.3671875,2.880859375,3.125,7.177734375t3.369140625,8.447265625l0-0.146484375q1.3671875,3.125,2.63671875,6.0546875t2.490234375,5.322265625q1.7578125,4.1015625,3.4423828125,8.30078125t3.2958984375,8.30078125q0.634765625,1.611328125,1.1962890625,3.125t1.1962890625,2.880859375q1.7578125,4.4921875,3.3935546875,8.6181640625t3.4912109375,8.5205078125l0-0.732421875q0-4.736328125,0.1220703125-9.5703125t0.6103515625-9.423828125q0.48828125-4.736328125,0.7568359375-9.4482421875t0.2685546875-9.5947265625l0-2.05078125t-0.146484375-2.197265625q0-2.001953125-0.048828125-4.00390625t-0.1953125-3.7109375q-0.146484375-2.880859375-0.1953125-5.6884765625t-0.048828125-5.5908203125l0-0.48828125q0-3.369140625-0.390625-6.982421875q-0.244140625-1.7578125-0.3662109375-3.4423828125t-0.1220703125-3.4423828125q0-1.123046875,0.1220703125-2.63671875t0.6103515625-3.515625l2.63671875,0.146484375q-0.48828125,2.001953125-0.6103515625,3.4423828125t-0.1220703125,2.5634765625q0,3.369140625,0.341796875,6.884765625q0,0.634765625,0.0732421875,1.171875t0.0732421875,1.171875q0.146484375,0.9765625,0.1953125,2.3193359375t0.048828125,2.3193359375l0,0.48828125q0,3.369140625,0.0732421875,6.93359375t0.3173828125,6.93359375l0.244140625,5.126953125q0.146484375,0.9765625,0.146484375,2.24609375l0,2.001953125q0,4.8828125-0.3173828125,9.5703125t-0.7080078125,9.47265625q-0.48828125,4.638671875-0.6103515625,9.423828125t-0.1220703125,9.5703125l0,4.1015625t0.09765625,4.150390625l-2.001953125,0l-0.244140625-0.537109375q-0.244140625-0.244140625-0.8056640625-1.3671875t-0.8056640625-1.7578125l-1.123046875-2.24609375q-2.001953125-4.8828125-3.9306640625-9.814453125t-3.9306640625-9.814453125q-2.1484375-5.2734375-4.150390625-10.25390625t-4.248046875-10.205078125q-1.26953125-2.490234375-2.5634765625-5.6396484375t-2.6611328125-6.2744140625q-0.87890625-1.7578125-1.416015625-3.22265625q-1.123046875-3.125-2.294921875-6.005859375t-2.685546875-5.76171875l-2.001953125-4.1015625q-0.634765625-0.9765625-1.2451171875-2.001953125t-1.1474609375-1.904296875l-0.5859375-1.7578125l-0.390625-1.220703125q-0.634765625,6.396484375-0.830078125,12.7685546875t-0.1953125,12.9638671875l0,18.65234375q0,2.880859375-0.048828125,6.0546875t-0.1953125,6.54296875q-0.146484375,0.9765625-0.1953125,2.1240234375t-0.29296875,2.1240234375t-0.3662109375,2.1728515625t-0.1220703125,1.9775390625q-0.146484375,1.7578125-0.1953125,3.369140625t-0.048828125,3.369140625q0,2.490234375,0.244140625,5.56640625t0.87890625,5.908203125l-2.63671875,0.146484375q-0.634765625-2.880859375-0.87890625-6.005859375t-0.244140625-5.615234375z M58.349609375,58.10546875q0-3.759765625,0.390625-7.373046875q0.634765625-4.39453125,1.9287109375-9.3017578125t4.1748046875-9.5458984375q0.244140625-0.244140625,0.3662109375-0.634765625t0.3662109375-0.634765625q1.7578125-2.63671875,3.5888671875-5.322265625t3.5400390625-4.296875l2.392578125-2.099609375q1.7578125-1.3671875,4.0771484375-3.3935546875t4.1748046875-3.0029296875q2.001953125-0.9765625,4.6142578125-1.9775390625t5.2490234375-1.3916015625q0.390625,0,1.025390625-0.146484375q0.87890625-0.146484375,1.8798828125-0.1953125t1.9775390625-0.048828125q2.392578125,0,4.6875,0.634765625t3.564453125,0.9765625q2.734375,0.9765625,5.2490234375,1.9287109375t5.3955078125,3.1982421875q3.369140625,2.490234375,5.615234375,5.2001953125t3.61328125,6.7138671875q1.26953125,3.61328125,1.953125,7.2998046875t1.318359375,7.4462890625q0.244140625,2.001953125,0.4150390625,4.052734375t0.1708984375,4.443359375q0,8.251953125-2.24609375,16.30859375t-6.982421875,14.55078125q-2.490234375,3.271484375-5.7373046875,6.201171875t-7.12890625,5.2490234375t-8.0810546875,3.6865234375t-8.30078125,1.3671875q-0.732421875,0-1.123046875-0.146484375q-2.978515625-0.146484375-5.17578125-1.318359375t-4.345703125-2.5390625q-0.634765625,0-0.5859375-0.634765625q-0.634765625-0.634765625-1.7578125-1.2451171875t-2.392578125-1.3427734375l0,0.09765625l-1.611328125-0.9765625q-1.3671875-0.87890625-2.880859375-1.8310546875t-3.125-2.5634765625q-5.517578125-5.126953125-7.8857421875-12.5t-2.3681640625-14.892578125z M60.83984375,58.10546875q0,7.12890625,2.197265625,14.013671875t7.32421875,11.5234375q1.7578125,1.7578125,3.369140625,2.734375t3.22265625,1.85546875l4.638671875,3.02734375l-0.48828125-0.244140625q2.24609375,1.7578125,4.736328125,2.880859375t5.37109375,1.3671875l0.390625,0.09765625q3.857421875,0,7.8125-1.2451171875t7.568359375-3.369140625t6.689453125-4.8828125t5.17578125-5.7373046875q4.248046875-5.859375,6.4453125-13.7451171875t2.197265625-15.7470703125q0-2.001953125-0.1953125-4.00390625t-0.439453125-3.857421875q-0.634765625-3.759765625-1.318359375-7.3974609375t-1.806640625-7.2509765625q-1.26953125-3.61328125-3.271484375-6.1279296875t-4.8828125-4.5166015625q-2.1484375-1.611328125-4.6142578125-2.6123046875t-5.3466796875-1.8798828125q-1.123046875-0.390625-3.3935546875-1.0009765625t-4.1259765625-0.6103515625q-0.390625,0-1.123046875,0.0732421875t-1.3671875,0.1708984375q-0.634765625,0.146484375-1.1962890625,0.146484375l-0.8056640625,0q-1.85546875,0.390625-4.443359375,1.3916015625t-4.443359375,1.9775390625q-2.1484375,0.9765625-3.759765625,2.294921875t-3.22265625,2.83203125l-1.025390625,0.87890625l-2.099609375,1.85546875q-2.1484375,2.001953125-3.6376953125,4.052734375t-2.6123046875,3.955078125l-1.7578125,2.490234375q-2.1484375,3.61328125-3.3935546875,8.30078125t-1.8798828125,9.08203125l0-0.146484375q-0.244140625,1.7578125-0.3662109375,3.6376953125t-0.1220703125,3.7353515625z">
        <animate attributeName="stroke-dashoffset" attributeType="XML" values="988.01; 0" begin="0s" dur="5s" repeatCount="indefinite" />
    </path>
</svg>
