<svg version="1.1" id="Calque_1" xmlns="http://www.w3.org/2000/svg" xmlns:xlink="http://www.w3.org/1999/xlink" x="0px" y="0px"
	 viewBox="0 0 37.2 27.6" enable-background="new 0 0 37.2 27.6" xml:space="preserve">
<path fill-rule="evenodd" clip-rule="evenodd" d="M34.9,3c-1.6-1.8-3.8-2.9-6.2-3c-2.4-0.1-4.4,0.6-6.2,2.2c0,0,0,0,0,0c0,0,0,0,0,0
	l-0.6,0.7C20.7,5.7,19,9.4,19,9.4l5.5,2.4l-4,7.4c0,0,0.5,4.8-1.1,8.2c0.2,0.1,0.5,0.2,0.7,0.2c0.5,0,1.1-0.2,1.5-0.5l12.6-11.3
	c1.8-1.6,2.9-3.8,3-6.2C37.3,7.1,36.5,4.8,34.9,3z"/>
<path fill-rule="evenodd" clip-rule="evenodd" d="M15.6,18.7l2-5.9l-4.9-1.9l2.7-7.6l-1.1-1c0,0,0,0,0,0c0,0,0,0,0,0
	C12.4,0.9,10.4,0.1,8,0.4C5.6,0.7,3.5,1.9,2,3.7C0.5,5.6-0.2,8,0.1,10.4c0.3,2.4,1.5,4.5,3.3,6L16.6,27c0.2,0.2,0.5,0.3,0.8,0.4
	C18.4,23.7,15.6,18.7,15.6,18.7z"/>
</svg>
