<svg version="1.1" id="Calque_1" xmlns="http://www.w3.org/2000/svg" xmlns:xlink="http://www.w3.org/1999/xlink" x="0px" y="0px"
	 viewBox="0 0 31.3 28.1" enable-background="new 0 0 31.3 28.1" xml:space="preserve">
<path fill-rule="evenodd" clip-rule="evenodd" d="M28.6,2.5c-1.7-1.7-4-2.6-6.4-2.5c-2.4,0-4.3,1-6,2.7c0,0,0,0,0,0c0,0,0,0,0,0
	l-0.6,0.7c-1,2.9-2.4,6.7-2.4,6.7l3.8,3.1l-1.6,6.5c0,0,0.9,4.7-0.5,8.2c0.2,0.1,0.5,0.1,0.7,0.1c0.5,0,1-0.2,1.4-0.6l11.7-12.3
	c1.7-1.7,2.6-4,2.5-6.4C31.3,6.4,30.3,4.2,28.6,2.5z"/>
<path fill-rule="evenodd" clip-rule="evenodd" d="M15.5,19.8l1.9-6.9l-3.6-2.3L16.1,4l-0.9-1.2c0,0,0,0,0,0c0,0,0,0,0,0
	c-1.7-1.7-3.6-2.7-6-2.8C6.8,0,4.5,0.9,2.8,2.6C1.1,4.2,0.1,6.5,0,8.9c-0.1,2.4,0.8,4.7,2.5,6.4l11.6,12.3c0.2,0.2,0.6,0.3,0.9,0.4
	C16.5,24.5,15.5,19.8,15.5,19.8z"/>
</svg>
