<svg version="1.1" xmlns="http://www.w3.org/2000/svg" xmlns:xlink="http://www.w3.org/1999/xlink" x="0px" y="0px"
	 viewBox="0 0 31.3 28.1" enable-background="new 0 0 31.3 28.1" xml:space="preserve">
<path id="rating-star" d="M16.458,20.866 C16.458,20.866 10.599,17.668 10.599,17.668 C10.599,17.668 4.739,20.865 4.739,20.865 C4.152,21.186 3.765,20.906 3.875,20.238 C3.875,20.238 4.997,13.450 4.997,13.450 C4.997,13.450 0.283,8.681 0.283,8.681 C-0.188,8.205 -0.038,7.735 0.622,7.638 C0.622,7.638 7.126,6.657 7.126,6.657 C7.126,6.657 10.075,0.456 10.075,0.456 C10.364,-0.153 10.833,-0.153 11.123,0.456 C11.123,0.456 14.070,6.657 14.070,6.657 C14.070,6.657 20.574,7.638 20.574,7.638 C21.233,7.735 21.385,8.205 20.913,8.681 C20.913,8.681 16.200,13.450 16.200,13.450 C16.200,13.450 17.322,20.238 17.322,20.238 C17.431,20.906 17.045,21.187 16.458,20.866 ZM4.534,9.523 C4.534,9.523 7.582,12.609 7.582,12.609 C7.582,12.609 6.869,16.922 6.869,16.922 C6.869,16.922 10.599,14.889 10.599,14.889 C10.599,14.889 14.327,16.922 14.327,16.922 C14.327,16.922 13.615,12.609 13.615,12.609 C13.615,12.609 16.663,9.523 16.663,9.523 C16.663,9.523 12.451,8.889 12.451,8.889 C12.451,8.889 10.599,4.991 10.599,4.991 C10.599,4.991 8.745,8.889 8.745,8.889 C8.745,8.889 4.534,9.523 4.534,9.523 Z"
    style="stroke: #000000;
         fill: #6666ff;
         stroke-width: 3px;
         fill-rule: nonzero;
    "
     />
</svg>
